<svg width="173" height="72" viewBox="0 0 173 72" fill="none" xmlns="http://www.w3.org/2000/svg">
<path d="M10.03 38.94H10.77V40.84H17V41.75H10.77V43.66H10.03V38.94ZM11.42 35.0998C11.42 34.6865 11.51 34.3132 11.69 33.9798C11.8633 33.6465 12.1267 33.3865 12.48 33.1998C12.8333 33.0065 13.2633 32.9098 13.77 32.9098H17V33.8098H13.9C13.3533 33.8098 12.9367 33.9465 12.65 34.2198C12.3567 34.4932 12.21 34.8665 12.21 35.3398C12.21 35.8198 12.36 36.2032 12.66 36.4898C12.96 36.7698 13.3967 36.9098 13.97 36.9098H17V37.8198H9.6V36.9098H12.3C12.02 36.7298 11.8033 36.4832 11.65 36.1698C11.4967 35.8498 11.42 35.4932 11.42 35.0998ZM14.05 26.4234C14.2233 26.4234 14.4067 26.4334 14.6 26.4534V30.8334C15.14 30.8 15.5633 30.6167 15.87 30.2834C16.17 29.9434 16.32 29.5334 16.32 29.0534C16.32 28.66 16.23 28.3334 16.05 28.0734C15.8633 27.8067 15.6167 27.62 15.31 27.5134V26.5334C15.8367 26.68 16.2667 26.9734 16.6 27.4134C16.9267 27.8534 17.09 28.4 17.09 29.0534C17.09 29.5734 16.9733 30.04 16.74 30.4534C16.5067 30.86 16.1767 31.18 15.75 31.4134C15.3167 31.6467 14.8167 31.7634 14.25 31.7634C13.6833 31.7634 13.1867 31.65 12.76 31.4234C12.3333 31.1967 12.0067 30.88 11.78 30.4734C11.5467 30.06 11.43 29.5867 11.43 29.0534C11.43 28.5334 11.5433 28.0734 11.77 27.6734C11.9967 27.2734 12.31 26.9667 12.71 26.7534C13.1033 26.5334 13.55 26.4234 14.05 26.4234ZM13.86 27.3634C13.5133 27.3634 13.2167 27.44 12.97 27.5934C12.7167 27.7467 12.5267 27.9567 12.4 28.2234C12.2667 28.4834 12.2 28.7734 12.2 29.0934C12.2 29.5534 12.3467 29.9467 12.64 30.2734C12.9333 30.5934 13.34 30.7767 13.86 30.8234V27.3634Z" fill="#5271FF"/>
<path d="M21.032 29.048V34.64H27.128V36.44H21.032V42.2H27.848V44H18.848V27.248H27.848V29.048H21.032ZM33.3367 26.24V44H31.1527V26.24H33.3367ZM49.0589 36.92C49.0589 37.336 49.0349 37.776 48.9869 38.24H38.4749C38.5549 39.536 38.9949 40.552 39.7949 41.288C40.6109 42.008 41.5949 42.368 42.7469 42.368C43.6909 42.368 44.4749 42.152 45.0989 41.72C45.7389 41.272 46.1869 40.68 46.4429 39.944H48.7949C48.4429 41.208 47.7389 42.24 46.6829 43.04C45.6269 43.824 44.3149 44.216 42.7469 44.216C41.4989 44.216 40.3789 43.936 39.3869 43.376C38.4109 42.816 37.6429 42.024 37.0829 41C36.5229 39.96 36.2429 38.76 36.2429 37.4C36.2429 36.04 36.5149 34.848 37.0589 33.824C37.6029 32.8 38.3629 32.016 39.3389 31.472C40.3309 30.912 41.4669 30.632 42.7469 30.632C43.9949 30.632 45.0989 30.904 46.0589 31.448C47.0189 31.992 47.7549 32.744 48.2669 33.704C48.7949 34.648 49.0589 35.72 49.0589 36.92ZM46.8029 36.464C46.8029 35.632 46.6189 34.92 46.2509 34.328C45.8829 33.72 45.3789 33.264 44.7389 32.96C44.1149 32.64 43.4189 32.48 42.6509 32.48C41.5469 32.48 40.6029 32.832 39.8189 33.536C39.0509 34.24 38.6109 35.216 38.4989 36.464H46.8029ZM51.1258 37.4C51.1258 36.04 51.3978 34.856 51.9418 33.848C52.4858 32.824 53.2378 32.032 54.1978 31.472C55.1738 30.912 56.2858 30.632 57.5338 30.632C59.1498 30.632 60.4778 31.024 61.5178 31.808C62.5738 32.592 63.2698 33.68 63.6058 35.072H61.2538C61.0298 34.272 60.5898 33.64 59.9338 33.176C59.2938 32.712 58.4938 32.48 57.5338 32.48C56.2858 32.48 55.2778 32.912 54.5098 33.776C53.7418 34.624 53.3578 35.832 53.3578 37.4C53.3578 38.984 53.7418 40.208 54.5098 41.072C55.2778 41.936 56.2858 42.368 57.5338 42.368C58.4938 42.368 59.2938 42.144 59.9338 41.696C60.5738 41.248 61.0138 40.608 61.2538 39.776H63.6058C63.2538 41.12 62.5498 42.2 61.4938 43.016C60.4378 43.816 59.1178 44.216 57.5338 44.216C56.2858 44.216 55.1738 43.936 54.1978 43.376C53.2378 42.816 52.4858 42.024 51.9418 41C51.3978 39.976 51.1258 38.776 51.1258 37.4ZM69.1839 32.648V40.4C69.1839 41.04 69.3199 41.496 69.5919 41.768C69.8639 42.024 70.3359 42.152 71.0079 42.152H72.6159V44H70.6479C69.4319 44 68.5199 43.72 67.9119 43.16C67.3039 42.6 66.9999 41.68 66.9999 40.4V32.648H65.2959V30.848H66.9999V27.536H69.1839V30.848H72.6159V32.648H69.1839ZM77.4461 32.984C77.8301 32.232 78.3741 31.648 79.0781 31.232C79.7981 30.816 80.6701 30.608 81.6941 30.608V32.864H81.1181C78.6701 32.864 77.4461 34.192 77.4461 36.848V44H75.2621V30.848H77.4461V32.984ZM85.3432 28.712C84.9272 28.712 84.5752 28.568 84.2872 28.28C83.9992 27.992 83.8552 27.64 83.8552 27.224C83.8552 26.808 83.9992 26.456 84.2872 26.168C84.5752 25.88 84.9272 25.736 85.3432 25.736C85.7432 25.736 86.0792 25.88 86.3512 26.168C86.6392 26.456 86.7832 26.808 86.7832 27.224C86.7832 27.64 86.6392 27.992 86.3512 28.28C86.0792 28.568 85.7432 28.712 85.3432 28.712ZM86.3992 30.848V44H84.2152V30.848H86.3992ZM89.3054 37.4C89.3054 36.04 89.5774 34.856 90.1214 33.848C90.6654 32.824 91.4174 32.032 92.3774 31.472C93.3534 30.912 94.4654 30.632 95.7134 30.632C97.3294 30.632 98.6574 31.024 99.6974 31.808C100.753 32.592 101.449 33.68 101.785 35.072H99.4334C99.2094 34.272 98.7694 33.64 98.1134 33.176C97.4734 32.712 96.6734 32.48 95.7134 32.48C94.4654 32.48 93.4574 32.912 92.6894 33.776C91.9214 34.624 91.5374 35.832 91.5374 37.4C91.5374 38.984 91.9214 40.208 92.6894 41.072C93.4574 41.936 94.4654 42.368 95.7134 42.368C96.6734 42.368 97.4734 42.144 98.1134 41.696C98.7534 41.248 99.1934 40.608 99.4334 39.776H101.785C101.433 41.12 100.729 42.2 99.6734 43.016C98.6174 43.816 97.2974 44.216 95.7134 44.216C94.4654 44.216 93.3534 43.936 92.3774 43.376C91.4174 42.816 90.6654 42.024 90.1214 41C89.5774 39.976 89.3054 38.776 89.3054 37.4ZM103.884 37.376C103.884 36.032 104.156 34.856 104.7 33.848C105.244 32.824 105.988 32.032 106.932 31.472C107.892 30.912 108.956 30.632 110.124 30.632C111.276 30.632 112.276 30.88 113.124 31.376C113.972 31.872 114.604 32.496 115.02 33.248V30.848H117.228V44H115.02V41.552C114.588 42.32 113.94 42.96 113.076 43.472C112.228 43.968 111.236 44.216 110.1 44.216C108.932 44.216 107.876 43.928 106.932 43.352C105.988 42.776 105.244 41.968 104.7 40.928C104.156 39.888 103.884 38.704 103.884 37.376ZM115.02 37.4C115.02 36.408 114.82 35.544 114.42 34.808C114.02 34.072 113.476 33.512 112.788 33.128C112.116 32.728 111.372 32.528 110.556 32.528C109.74 32.528 108.996 32.72 108.324 33.104C107.652 33.488 107.116 34.048 106.716 34.784C106.316 35.52 106.116 36.384 106.116 37.376C106.116 38.384 106.316 39.264 106.716 40.016C107.116 40.752 107.652 41.32 108.324 41.72C108.996 42.104 109.74 42.296 110.556 42.296C111.372 42.296 112.116 42.104 112.788 41.72C113.476 41.32 114.02 40.752 114.42 40.016C114.82 39.264 115.02 38.392 115.02 37.4ZM123.102 26.24V44H120.918V26.24H123.102Z" fill="#004AAD"/>
<path d="M129.172 44.098C128.528 44.098 127.949 43.986 127.436 43.762C126.932 43.5287 126.535 43.2113 126.246 42.81C125.957 42.3993 125.807 41.928 125.798 41.396H127.156C127.203 41.8533 127.389 42.2407 127.716 42.558C128.052 42.866 128.537 43.02 129.172 43.02C129.779 43.02 130.255 42.8707 130.6 42.572C130.955 42.264 131.132 41.872 131.132 41.396C131.132 41.0227 131.029 40.7193 130.824 40.486C130.619 40.2527 130.362 40.0753 130.054 39.954C129.746 39.8327 129.331 39.702 128.808 39.562C128.164 39.394 127.646 39.226 127.254 39.058C126.871 38.89 126.54 38.6287 126.26 38.274C125.989 37.91 125.854 37.4247 125.854 36.818C125.854 36.286 125.989 35.8147 126.26 35.404C126.531 34.9933 126.909 34.676 127.394 34.452C127.889 34.228 128.453 34.116 129.088 34.116C130.003 34.116 130.749 34.3447 131.328 34.802C131.916 35.2593 132.247 35.866 132.322 36.622H130.922C130.875 36.2487 130.679 35.922 130.334 35.642C129.989 35.3527 129.531 35.208 128.962 35.208C128.43 35.208 127.996 35.348 127.66 35.628C127.324 35.8987 127.156 36.2813 127.156 36.776C127.156 37.1307 127.254 37.42 127.45 37.644C127.655 37.868 127.903 38.0407 128.192 38.162C128.491 38.274 128.906 38.4047 129.438 38.554C130.082 38.7313 130.6 38.9087 130.992 39.086C131.384 39.254 131.72 39.52 132 39.884C132.28 40.2387 132.42 40.724 132.42 41.34C132.42 41.816 132.294 42.264 132.042 42.684C131.79 43.104 131.417 43.4447 130.922 43.706C130.427 43.9673 129.844 44.098 129.172 44.098ZM138.103 36.188C138.681 36.188 139.204 36.314 139.671 36.566C140.137 36.8087 140.501 37.1773 140.763 37.672C141.033 38.1667 141.169 38.7687 141.169 39.478V44H139.909V39.66C139.909 38.8947 139.717 38.3113 139.335 37.91C138.952 37.4993 138.429 37.294 137.767 37.294C137.095 37.294 136.558 37.504 136.157 37.924C135.765 38.344 135.569 38.9553 135.569 39.758V44H134.295V33.64H135.569V37.42C135.821 37.028 136.166 36.7247 136.605 36.51C137.053 36.2953 137.552 36.188 138.103 36.188ZM146.596 44.126C145.877 44.126 145.224 43.9627 144.636 43.636C144.057 43.3093 143.6 42.8473 143.264 42.25C142.937 41.6433 142.774 40.9433 142.774 40.15C142.774 39.366 142.942 38.6753 143.278 38.078C143.623 37.4713 144.09 37.0093 144.678 36.692C145.266 36.3653 145.924 36.202 146.652 36.202C147.38 36.202 148.038 36.3653 148.626 36.692C149.214 37.0093 149.676 37.4667 150.012 38.064C150.357 38.6613 150.53 39.3567 150.53 40.15C150.53 40.9433 150.353 41.6433 149.998 42.25C149.653 42.8473 149.181 43.3093 148.584 43.636C147.987 43.9627 147.324 44.126 146.596 44.126ZM146.596 43.006C147.053 43.006 147.483 42.8987 147.884 42.684C148.285 42.4693 148.607 42.1473 148.85 41.718C149.102 41.2887 149.228 40.766 149.228 40.15C149.228 39.534 149.107 39.0113 148.864 38.582C148.621 38.1527 148.304 37.8353 147.912 37.63C147.52 37.4153 147.095 37.308 146.638 37.308C146.171 37.308 145.742 37.4153 145.35 37.63C144.967 37.8353 144.659 38.1527 144.426 38.582C144.193 39.0113 144.076 39.534 144.076 40.15C144.076 40.7753 144.188 41.3027 144.412 41.732C144.645 42.1613 144.953 42.4833 145.336 42.698C145.719 42.9033 146.139 43.006 146.596 43.006ZM153.479 37.742C153.731 37.3033 154.104 36.9393 154.599 36.65C155.103 36.3513 155.686 36.202 156.349 36.202C157.03 36.202 157.646 36.3653 158.197 36.692C158.757 37.0187 159.196 37.4807 159.513 38.078C159.83 38.666 159.989 39.352 159.989 40.136C159.989 40.9107 159.83 41.6013 159.513 42.208C159.196 42.8147 158.757 43.286 158.197 43.622C157.646 43.958 157.03 44.126 156.349 44.126C155.696 44.126 155.117 43.9813 154.613 43.692C154.118 43.3933 153.74 43.0247 153.479 42.586V47.64H152.205V36.328H153.479V37.742ZM158.687 40.136C158.687 39.5573 158.57 39.0533 158.337 38.624C158.104 38.1947 157.786 37.868 157.385 37.644C156.993 37.42 156.559 37.308 156.083 37.308C155.616 37.308 155.182 37.4247 154.781 37.658C154.389 37.882 154.072 38.2133 153.829 38.652C153.596 39.0813 153.479 39.5807 153.479 40.15C153.479 40.7287 153.596 41.2373 153.829 41.676C154.072 42.1053 154.389 42.4367 154.781 42.67C155.182 42.894 155.616 43.006 156.083 43.006C156.559 43.006 156.993 42.894 157.385 42.67C157.786 42.4367 158.104 42.1053 158.337 41.676C158.57 41.2373 158.687 40.724 158.687 40.136Z" fill="#5271FF"/>
<path fill-rule="evenodd" clip-rule="evenodd" d="M148.5 39.55H147.356L148.038 37.9591C148.048 37.9363 148.052 37.9114 148.05 37.8866C148.047 37.8619 148.039 37.8381 148.025 37.8174C148.012 37.7966 147.993 37.7796 147.971 37.7679C147.949 37.7561 147.925 37.75 147.9 37.75H146.4C146.371 37.75 146.342 37.7586 146.317 37.7747C146.293 37.7909 146.274 37.8139 146.262 37.8409L145.362 39.9409C145.352 39.9637 145.348 39.9886 145.35 40.0134C145.353 40.0381 145.361 40.0619 145.375 40.0826C145.388 40.1034 145.407 40.1204 145.429 40.1321C145.451 40.1439 145.475 40.15 145.5 40.15H146.242L145.361 42.3442C145.301 42.4933 145.486 42.6196 145.603 42.5092L147.11 41.0863L148.598 39.814C148.621 39.7941 148.637 39.7675 148.645 39.7378C148.653 39.7081 148.651 39.6768 148.641 39.648C148.63 39.6193 148.611 39.5944 148.586 39.5769C148.561 39.5594 148.531 39.55 148.5 39.55ZM147.129 39.85H148.094L146.909 40.8634L145.894 41.8219L146.603 40.0558C146.613 40.033 146.616 40.0084 146.613 39.984C146.611 39.9596 146.602 39.9363 146.588 39.916C146.575 39.8957 146.556 39.879 146.535 39.8675C146.513 39.856 146.489 39.85 146.464 39.85H145.727L146.499 38.05H147.673L146.991 39.6409C146.981 39.6637 146.977 39.6886 146.979 39.7134C146.981 39.7381 146.99 39.7619 147.003 39.7826C147.017 39.8034 147.036 39.8204 147.058 39.8321C147.079 39.8439 147.104 39.85 147.129 39.85Z" fill="#5271FF"/>
<path d="M83.6111 26.1667V26.0656C83.6111 25.3148 83.1427 24.6603 82.5562 24.1918C81.7907 23.5813 81.2338 22.748 80.9628 21.8071C80.6917 20.8663 80.7199 19.8644 81.0433 18.9402C81.3666 18.016 81.9693 17.2152 82.7679 16.6486C83.5664 16.082 84.5213 15.7777 85.5005 15.7777C86.4796 15.7777 87.4345 16.082 88.2331 16.6486C89.0316 17.2152 89.6343 18.016 89.9577 18.9402C90.2811 19.8644 90.3092 20.8663 90.0381 21.8071C89.7671 22.748 89.2103 23.5813 88.4448 24.1918C87.8573 24.6612 87.3889 25.3148 87.3889 26.0656V26.1667M83.6111 26.1667V28.0556C83.6111 28.306 83.7106 28.5463 83.8877 28.7234C84.0649 28.9005 84.3051 29 84.5556 29H86.4444C86.6949 29 86.9351 28.9005 87.1123 28.7234C87.2894 28.5463 87.3889 28.306 87.3889 28.0556V26.1667M83.6111 26.1667H87.3889M93.0556 20.5H94M77.9444 20.5H77M85.5 12.9444V12M90.8427 15.1573L91.5104 14.4896M80.1582 15.1573L79.4896 14.4896M85.5 23.3333V21.4444" stroke="#004AAD" stroke-width="2" stroke-linecap="round" stroke-linejoin="round"/>
</svg>
